<?xml version="1.0" encoding="UTF-8" standalone="no"?>
<svg
   xmlns:dc="http://purl.org/dc/elements/1.1/"
   xmlns:cc="http://creativecommons.org/ns#"
   xmlns:rdf="http://www.w3.org/1999/02/22-rdf-syntax-ns#"
   xmlns:svg="http://www.w3.org/2000/svg"
   xmlns="http://www.w3.org/2000/svg"
   viewBox="0 0 453.54333 415.74799"
   height="415.74799"
   width="453.54333"
   xml:space="preserve"
   id="svg2"
   version="1.1"><metadata
     id="metadata8"><rdf:RDF><cc:Work
         rdf:about=""><dc:format>image/svg+xml</dc:format><dc:type
           rdf:resource="http://purl.org/dc/dcmitype/StillImage" /></cc:Work></rdf:RDF></metadata><defs
     id="defs6" /><g
     transform="matrix(1.3333333,0,0,-1.3333333,0,415.748)"
     id="g10"><g
       id="g12"><path
         id="path14"
         style="fill:#ed3237;fill-opacity:1;fill-rule:evenodd;stroke:none"
         d="m 169.9974,311.7169 c 86.1043,0 155.9058,-69.8014 155.9058,-155.9058 0,-86.1043 -69.8015,-155.9058 -155.9058,-155.9058 -86.1044,0 -155.9058,69.8015 -155.9058,155.9058 0,86.1044 69.8014,155.9058 155.9058,155.9058" /><g
         id="g16"><path
           id="path18"
           style="fill:#ffffff;fill-opacity:1;fill-rule:nonzero;stroke:none"
           d="m 209.0341,76.9113 c 6.8196,24.8851 42.6496,42.9698 42.6496,74.8366 0,48.5102 -39.3257,87.8355 -87.8358,87.8355 -48.5099,0 -87.8357,-39.3253 -87.8357,-87.8355 0,-48.5104 39.3258,-87.8354 87.8357,-87.8354 6.6257,0 13.0785,0.7381 19.2844,2.1288 z m -5.4036,72.8167 c 0,-4.555 -3.6925,-8.2474 -8.2472,-8.2474 -4.555,0 -8.2471,3.6924 -8.2471,8.2474 0,4.5544 3.6921,8.2465 8.2471,8.2465 4.5547,0 8.2472,-3.6921 8.2472,-8.2465 z m -31.5358,0 c 0,-4.555 -3.6918,-8.2474 -8.2468,-8.2474 -4.5547,0 -8.2471,3.6924 -8.2471,8.2474 0,4.5544 3.6924,8.2465 8.2471,8.2465 4.555,0 8.2468,-3.6921 8.2468,-8.2465 z m -32.3271,0 c 0,-4.555 -3.6924,-8.2474 -8.2471,-8.2474 -4.555,0 -8.2474,3.6924 -8.2474,8.2474 0,4.5544 3.6924,8.2465 8.2474,8.2465 4.5547,0 8.2471,-3.6921 8.2471,-8.2465" /><path
           id="path20"
           style="fill:#de2529;fill-opacity:1;fill-rule:nonzero;stroke:none"
           d="m 91.6603,143.1411 c 0,42.8377 34.7272,77.5647 77.5649,77.5647 25.0396,0 47.3035,-11.8678 61.4849,-30.282 -13.3937,23.2518 -38.4979,38.9056 -67.2585,38.9056 -42.8377,0 -77.5647,-34.7267 -77.5647,-77.5647 0,-17.7988 5.9993,-34.1938 16.0798,-47.2828 -6.5554,11.3811 -10.3064,24.5818 -10.3064,38.6592" /><path
           id="path22"
           style="fill:#ffffff;fill-opacity:1;fill-rule:nonzero;stroke:none"
           d="m 251.6837,151.6065 c 0,31.6111 -16.729,59.3127 -41.8139,74.7436 8.733,-13.634 13.7968,-29.8437 13.7968,-47.2359 0,-48.4322 -39.2618,-87.694 -87.694,-87.694 -16.8208,0 -32.5327,4.7392 -45.8808,12.95 15.5855,-24.3311 42.8582,-40.4577 73.8978,-40.4577 47.8851,0 87.6941,39.8219 87.6941,87.694" /><path
           id="path24"
           style="fill:#ffffff;fill-opacity:1;fill-rule:evenodd;stroke:none"
           d="m 210.3548,78.4712 c 21.9671,-12.2156 38.0993,-8.513 53.6426,-3.2026 -10.2807,10.0588 -18.938,21.4793 -22.3731,37.2725 C 229.3526,95.8226 220.3662,86.629 210.3548,78.4712" /><path
           id="path26"
           style="fill:#ffffff;fill-opacity:1;fill-rule:evenodd;stroke:none"
           d="m 75.9974,246.3514 c 24.9194,4.8818 39.9782,-4.2205 53.2556,-14.1738 -13.0172,-6.4565 -25.6135,-14.218 -33.8434,-28.3207 -6.5732,19.8936 -12.3389,31.5318 -19.4122,42.4945" /></g></g></g></svg>