<?xml version="1.0" encoding="UTF-8" standalone="no"?>
<svg
   xmlns:dc="http://purl.org/dc/elements/1.1/"
   xmlns:cc="http://creativecommons.org/ns#"
   xmlns:rdf="http://www.w3.org/1999/02/22-rdf-syntax-ns#"
   xmlns:svg="http://www.w3.org/2000/svg"
   xmlns="http://www.w3.org/2000/svg"
   viewBox="0 0 2418.8977 793.70081"
   height="793.70081"
   width="2418.8977"
   xml:space="preserve"
   id="svg2"
   version="1.1"><metadata
     id="metadata8"><rdf:RDF><cc:Work
         rdf:about=""><dc:format>image/svg+xml</dc:format><dc:type
           rdf:resource="http://purl.org/dc/dcmitype/StillImage" /></cc:Work></rdf:RDF></metadata><defs
     id="defs6" /><g
     transform="matrix(1.3333333,0,0,-1.3333333,0,793.7008)"
     id="g10"><g
       id="g12"><g
         id="g14"><path
           id="path16"
           style="fill:#ed3237;fill-opacity:1;fill-rule:evenodd;stroke:none"
           d="m 209.2955,492.6713 c 107.8257,0 195.2356,-87.4099 195.2356,-195.2356 C 404.5311,189.61 317.1212,102.2 209.2955,102.2 c -107.8257,0 -195.2357,87.41 -195.2357,195.2357 0,107.8257 87.41,195.2356 195.2357,195.2356" /><g
           id="g18"><path
             id="path20"
             style="fill:#ffffff;fill-opacity:1;fill-rule:nonzero;stroke:none"
             d="m 258.1798,198.6321 c 8.5402,31.1627 53.4087,53.8098 53.4087,93.7151 0,60.7479 -49.246,109.9936 -109.9939,109.9936 -60.7473,0 -109.9936,-49.2457 -109.9936,-109.9936 0,-60.7476 49.2463,-109.9933 109.9936,-109.9933 8.2973,0 16.3777,0.9247 24.1495,2.666 z m -6.7669,91.1858 c 0,-5.7039 -4.6235,-10.3278 -10.3274,-10.3278 -5.7042,0 -10.3278,4.6239 -10.3278,10.3278 0,5.7033 4.6236,10.3271 10.3278,10.3271 5.7039,0 10.3274,-4.6238 10.3274,-10.3271 z m -39.4908,0 c 0,-5.7039 -4.6233,-10.3278 -10.3275,-10.3278 -5.7039,0 -10.3277,4.6239 -10.3277,10.3278 0,5.7033 4.6238,10.3271 10.3277,10.3271 5.7042,0 10.3275,-4.6238 10.3275,-10.3271 z m -40.4824,0 c 0,-5.7039 -4.6239,-10.3278 -10.3278,-10.3278 -5.7039,0 -10.3275,4.6239 -10.3275,10.3278 0,5.7033 4.6236,10.3271 10.3275,10.3271 5.7039,0 10.3278,-4.6238 10.3278,-10.3271" /><path
             id="path22"
             style="fill:#de2529;fill-opacity:1;fill-rule:nonzero;stroke:none"
             d="m 111.1966,281.5693 c 0,53.6446 43.4875,97.132 97.132,97.132 31.3563,0 59.2364,-14.8618 76.9955,-37.9213 -16.7726,29.1174 -48.2094,48.7204 -84.2255,48.7204 -53.6443,0 -97.1317,-43.4874 -97.1317,-97.1319 0,-22.2888 7.5126,-42.8196 20.1362,-59.2107 -8.2092,14.2523 -12.9065,30.7831 -12.9065,48.4115" /><path
             id="path24"
             style="fill:#ffffff;fill-opacity:1;fill-rule:nonzero;stroke:none"
             d="m 311.5885,292.1703 c 0,39.5859 -20.9492,74.2754 -52.3621,93.5992 10.936,-17.0734 17.2771,-37.3723 17.2771,-59.1523 0,-60.6501 -49.1661,-109.8164 -109.8161,-109.8164 -21.064,0 -40.7398,5.9349 -57.4549,16.217 19.5171,-30.469 53.6698,-50.6639 92.5396,-50.6639 59.9649,0 109.8164,49.8679 109.8164,109.8164" /><path
             id="path26"
             style="fill:#ffffff;fill-opacity:1;fill-rule:evenodd;stroke:none"
             d="m 259.8338,200.5855 c 27.5086,-15.2972 47.7102,-10.6606 67.1746,-4.0105 -12.8741,12.5963 -23.7152,26.8977 -28.0168,46.675 -15.3674,-20.9358 -26.621,-32.4487 -39.1578,-42.6645" /><path
             id="path28"
             style="fill:#ffffff;fill-opacity:1;fill-rule:evenodd;stroke:none"
             d="m 91.5823,410.8164 c 31.2058,6.1132 50.0635,-5.2855 66.6904,-17.7494 -16.3012,-8.0853 -32.0751,-17.8047 -42.3808,-35.4651 -8.2318,24.9123 -15.4516,39.4863 -24.3096,53.2145" /></g></g><path
         id="path30"
         style="fill:#ed3237;fill-opacity:1;fill-rule:evenodd;stroke:none"
         d="m 1319.6225,397.2606 c -0.015,-3.4818 15.9129,-8.8163 18.1202,-12.8869 l -0.8229,-192.7298 c -8.4586,-1.1053 -14.4042,-4.004 -21.397,-5.7634 l 0.092,-15.1566 h 80.72 l 0.065,15.1016 c -6.776,2.0083 -11.325,3.975 -19.4117,5.5445 l 0.277,104.8306 c 0.5521,2.3542 65.7892,50.4754 65.4318,-33.2342 l -0.301,-70.5385 c -0.01,-2.4216 -5.3995,-2.8627 -7.7962,-3.5903 -3.0855,-0.9372 -5.8351,-2.2196 -8.6264,-2.9143 l -0.065,-15.1994 c 11.1558,-0.009 69.7655,-0.6188 75.9291,0.2991 l 1.7663,14.8342 c -7.2301,1.984 -12.5283,4.8872 -21.3134,5.7841 0.097,22.6443 0.1933,45.2892 0.29,67.9337 0.1091,25.5303 0.8186,61.5476 -27.1562,73.3142 -28.3213,11.9123 -55.8596,-3.4163 -78.0545,-14.0732 l 0.3412,103.4549 c -8.1456,0 -9.7078,0.3986 -17.0067,-1.9071 l -28.5239,-8.799 c -14.1752,-4.3195 -12.5002,-1.1305 -12.5566,-14.3042 m -9e-4,0 z" /><path
         id="path32"
         style="fill:#ed3237;fill-opacity:1;fill-rule:evenodd;stroke:none"
         d="m 1297.188,215.7279 -8.8174,3.3837 c -5.8666,-8.1411 -21.0306,-21.9456 -31.6548,-28.2215 -15.4038,-9.0997 -29.3304,-9.2539 -46.6163,-2.4009 -44.974,17.8299 -54.3728,81.5255 -35.4906,124.7964 12.7646,29.2527 44.1153,45.1667 77.2667,29.3667 6.374,-3.0379 13.9881,-8.8773 17.1428,-12.8863 3.3222,-4.222 9.7027,-12.2301 11.6688,-18.4519 l 10.1118,1.1081 c -0.1996,5.8773 -0.8413,34.2028 -2.6365,36.9802 -2.9259,4.5264 -21.291,9.7687 -28.3907,11.2895 -37.6353,8.0629 -71.0725,1.5662 -99.7466,-21.9016 -2.0756,-1.6985 -3.6417,-2.808 -5.5579,-4.7094 -49.0873,-48.7092 -35.989,-139.0992 37.6137,-162.4031 21.0745,-6.6725 47.4934,-6.2853 68.3612,0.6344 7.0934,2.3519 14.0604,5.5859 20.3774,9.2069 3.1938,1.8306 2.852,2.6833 4.2823,5.9612 z" /><path
         id="path34"
         style="fill:#ed3237;fill-opacity:1;fill-rule:evenodd;stroke:none"
         d="m 1608.5682,249.3193 -0.713,-38.554 c -0.6607,-5.5273 -18.0819,-13.5185 -23.8926,-15.2915 -9.5794,-2.9231 -14.1211,-1.7323 -18.8187,4.225 -6.334,8.0331 -8.0603,21.8707 -4.077,31.0578 1.1877,2.7394 4.1408,6.3955 6.1999,7.3848 8.3106,3.9937 31.174,10.0613 41.3014,11.1779 z m -0.3039,41.8595 c 2.1934,-2.7031 0.8441,-19.0619 0.8045,-23.5622 l -2.3049,-0.5397 c -12.3055,-1.3856 -47.6337,-10.65 -58.5173,-15.9551 -16.8607,-8.2185 -31.1712,-20.5458 -28.9823,-46.5035 3.1445,-37.2883 40.5627,-43.4123 68.448,-28.5471 9.0053,4.8007 15.4077,10.2991 22.4906,15.4587 1.9616,-2.7139 3.9779,-11.973 10.677,-16.6816 19.2676,-13.5428 48.5155,-2.0577 60.0797,14.421 l -5.7889,9.1369 c -28.2135,-7.6623 -26.8659,-10.4224 -26.604,50.995 0.1185,27.7342 4.8243,57.5719 -12.8098,75.3199 -15.8836,15.9866 -46.3218,15.2569 -68.6568,4.8807 -15.0741,-7.0024 -27.0141,-17.388 -35.5938,-30.3381 -1.1738,-1.7716 -3.6326,-4.8098 -2.8536,-7.4763 0.4921,-1.6838 3.9898,-5.4513 5.171,-6.2484 15.8541,2.1129 21.6773,5.9609 33.9244,11.4222 0.7991,9.7962 -1.9655,10.9406 5.7274,15.3065 19.5939,11.1197 35.7358,-3.5328 34.7888,-21.0889" /><path
         id="path36"
         style="fill:#ed3237;fill-opacity:1;fill-rule:evenodd;stroke:none"
         d="m 1683.3365,317.9049 c -0.012,-2.7864 7.4749,-4.4257 9.9966,-5.4223 3.5575,-1.4057 7.018,-2.6904 10.5883,-4.3118 0.4635,-21.5895 -0.1451,-43.8843 -0.2378,-65.5523 -0.08,-18.5965 -3.0028,-44.8549 7.1138,-57.9615 9.9638,-12.9087 23.6772,-19.1775 46.8723,-16.524 9.373,1.0724 17.6346,3.9515 24.5398,8.0915 8.3596,5.012 12.0228,9.4241 17.6771,14.7941 -1.1971,3.4868 -4.3347,6.7008 -5.955,10.2081 -9.4051,-2.4302 -50.6373,-27.648 -50.4119,24.4358 l 0.3781,86.159 h 44.3832 c 7.7703,0 4.8767,8.8753 4.2775,17.0096 -0.2013,2.7309 0.2917,5.0763 -2.1909,5.0763 h -47.4565 c 0.043,7.0775 0.6259,28.3456 -0.1412,33.8811 -5.9343,0.7897 -6.887,1.9553 -10.523,-1.0834 -2.2933,-1.9168 -4.2945,-3.9354 -6.6736,-6.226 l -35.9045,-30.6797 c -7.1609,-5.4686 -6.2986,-4.047 -6.3323,-11.8945" /><path
         id="path38"
         style="fill:#ed3237;fill-opacity:1;fill-rule:evenodd;stroke:none"
         d="m 451.1509,391.5326 c 9.3926,0 17.3687,-0.4825 26.9705,-0.4819 5.0179,6e-4 8.3211,-0.5 13.0019,-0.483 l 68.391,-0.4802 c -5.9468,-11.2382 -15.3947,-25.9733 -21.6732,-37.5659 L 442.9636,187.8086 V 171.434 c 6.2844,0 11.2342,-0.4819 17.8191,-0.4819 6.0148,0 12.3446,0.1947 18.3178,0.0162 l 17.8038,-0.4975 c 10.8848,0.001 25.2992,-0.9661 36.1213,-0.9632 6.1002,0.002 12.2009,-0.007 18.3011,0 6.0616,0.008 11.2926,-0.4819 17.82,-0.4819 24.8213,0 35.168,-1.8199 55.3949,13.4756 9.0048,6.8091 13.5493,16.05 18.7963,25.0319 0.8087,1.3839 1.7288,2.2473 1.904,4.3568 -2.3723,0.633 -9.3336,8.4079 -12.5221,9.1506 l -9.0337,-10.2311 c -1.6804,-1.484 -3.6,-2.9106 -5.5035,-4.1284 -1.1466,-0.7339 -1.8473,-1.0057 -3.0767,-1.7402 -6.7943,-4.0592 -18.646,-6.7754 -27.1624,-7.5129 -17.7945,-1.5412 -30.3585,-0.9496 -48.1754,-0.9496 -13.1641,0 -26.3282,0 -39.4928,0 0.4734,2.0307 13.494,24.184 14.3566,25.6181 9.756,16.2295 19.495,34.713 29.3831,51.0463 l 21.9257,38.2759 c 2.4585,4.5011 4.8708,8.3265 7.3919,12.8359 l 43.9758,76.9098 v 15.4123 H 454.5221 c 0,-3.4319 -1.0655,-8.754 -1.5891,-12.3778 -0.5292,-3.6584 -1.4593,-8.782 -1.7821,-12.6663" /><path
         id="path40"
         style="fill:#ed3237;fill-opacity:1;fill-rule:evenodd;stroke:none"
         d="M 672.2124,334.22 V 219.1141 c 0,-7.7266 0.8136,-14.4564 2.4979,-20.6197 4.8226,-17.642 21.4656,-30.9135 39.4027,-30.9135 16.4531,0 23.2926,2.2456 37.5738,8.6609 6.6725,2.9979 13.3087,6.4928 19.5352,10.3255 1.8111,1.1149 4.4887,3.1896 6.4642,3.6496 0,-4.026 3.4767,-14.2645 3.8528,-18.7829 h 41.9003 v 164.2306 h -46.235 V 211.89 c 0,-1.3461 -0.3918,-0.9861 -1.203,-1.6869 -7.4274,-6.4133 -42.1782,-23.1805 -52.7213,-6.0029 -2.9325,4.7778 -4.3506,12.5065 -4.3506,20.2113 v 111.2531 h -45.2722 c -1.1097,0 -1.4448,-0.3351 -1.4448,-1.4446" /><path
         id="path42"
         style="fill:#ed3237;fill-opacity:1;fill-rule:evenodd;stroke:none"
         d="m 990.5601,328.9221 v -10.5956 c 3.4762,-0.2889 13.8195,-5.0046 17.3384,-5.2974 0,-29.2179 0,-58.436 0,-87.6538 0,-13.259 -1.5074,-31.7801 2.7167,-41.1103 2.3055,-5.093 4.8651,-8.7984 9.8221,-11.8514 18.3084,-11.2759 55.7147,1.2357 71.7503,9.6095 1.2962,0.6766 2.0624,1.2651 3.3587,1.9392 1.1733,0.6103 2.2556,1.0547 3.5323,1.7657 8.0127,4.4609 6.1064,1.6171 6.1064,17.4929 -2.5365,0 -5.6756,-0.7745 -8.4558,-1.1773 -8.0603,-1.167 -18.4975,-2.1943 -26.7023,-2.1943 -11.7085,0 -15.4117,8.659 -15.4117,19.2648 v 93.4331 l 41.5675,3.7049 c 3.5036,0.4977 5.6342,-0.1083 6.0778,3.0727 l 1.9613,16.3398 h -49.6066 c 0,3.3644 -0.4819,4.6998 -0.4819,8.1878 v 20.7094 c -13.5329,0 -11.0157,1.2923 -18.3044,-3.8495 z" /><path
         id="path44"
         style="fill:#ed3237;fill-opacity:1;fill-rule:evenodd;stroke:none"
         d="m 860.0423,328.9221 v -10.5956 c 2.1753,-0.1809 6.2056,-1.8287 8.4877,-2.5892 2.3247,-0.7753 6.6527,-2.5251 8.8507,-2.7082 0,-29.2179 0,-58.436 0,-87.6538 0,-25.079 -5.7005,-57.3128 30.8233,-57.3128 20.096,0 36.438,5.697 52.9781,13.9665 2.1708,1.0863 4.6367,2.1898 6.7221,3.3923 1.6149,0.9317 5.0536,3.376 6.7629,3.833 v 13.9666 l -17.0631,-2.2023 c -8.3121,-1.1387 -24.9432,-3.5226 -29.9424,3.8398 -1.9647,2.8945 -3.5643,9.0267 -3.5643,13.7739 v 93.9149 c 4.6151,0 38.2391,3.1093 44.9127,4.2128 2.2326,0.3691 2.0883,0.042 2.5433,2.2726 l 1.669,16.632 h -49.6069 v 27.4521 c 0,2.5449 -5.4533,1.4451 -12.5214,1.4451 z" /></g></g></svg>